<?xml version="1.0" standalone="no"?>
<!DOCTYPE svg PUBLIC "-//W3C//DTD SVG 20010904//EN"
 "http://www.w3.org/TR/2001/REC-SVG-20010904/DTD/svg10.dtd">
<svg version="1.0" xmlns="http://www.w3.org/2000/svg"
 width="292.000000pt" height="239.000000pt" viewBox="0 0 292.000000 239.000000"
 preserveAspectRatio="xMidYMid meet">
<metadata>
Created by potrace 1.10, written by Peter Selinger 2001-2011
</metadata>
<g transform="translate(0.000000,239.000000) scale(0.050000,-0.050000)"
fill="#000000" stroke="none">
<path d="M3350 4632 c-138 -33 -302 -126 -377 -214 -61 -70 -68 -73 -225 -82
-668 -38 -1036 -829 -636 -1371 31 -42 30 -45 -5 -57 -537 -183 -700 -856
-302 -1254 284 -284 781 -285 1063 -3 81 81 98 89 186 89 677 0 1091 776 717
1342 -60 90 -61 98 -20 98 131 0 364 202 456 397 268 565 -250 1203 -857 1055z
m410 -304 c430 -234 274 -928 -209 -928 -80 0 -128 -33 -161 -113 -44 -105
-40 -116 77 -244 401 -435 109 -1075 -472 -1037 -169 11 -171 10 -253 -109
-257 -375 -855 -212 -897 243 -27 297 149 494 495 555 76 14 95 27 124 86 51
104 45 129 -66 252 -397 438 -151 1031 430 1039 l198 3 99 113 c188 215 409
263 635 140z"/>
<path d="M506 980 c10 -38 0 -40 -148 -40 l-158 0 0 -60 0 -60 180 0 c107 0
180 -8 180 -20 0 -12 -76 -20 -187 -20 l-187 0 -23 -139 c-37 -221 -62 -201
265 -201 244 0 290 5 300 32 32 85 20 91 -173 86 -129 -2 -184 3 -183 19 1 13
3 41 5 63 3 37 17 40 194 40 209 0 200 -7 154 115 -5 14 4 25 21 25 30 0 54
40 54 92 0 18 -21 28 -58 28 -41 0 -60 12 -68 40 -8 32 -27 40 -94 40 -75 0
-83 -5 -74 -40z"/>
<path d="M1005 873 l-150 -146 97 -143 98 -142 126 -1 c143 -1 142 -11 8 166
l-89 116 143 130 c171 157 173 167 29 167 l-112 0 -150 -147z"/>
<path d="M1533 860 c-118 -202 -124 -191 87 -184 163 6 180 3 180 -30 -1 -81
-28 -92 -218 -88 l-182 4 0 -61 0 -61 289 0 289 0 13 95 c7 52 20 129 29 170
l16 75 -178 0 c-198 0 -203 5 -128 116 69 102 65 124 -27 124 -76 0 -80 -4
-170 -160z"/>
<path d="M1837 1010 c-44 -44 30 -166 108 -178 102 -17 105 -12 72 92 -26 83
-133 134 -180 86z"/>
<path d="M3010 992 c-11 -40 -57 -342 -54 -352 2 -5 51 -10 109 -9 l105 1 17
89 c35 192 27 179 115 179 78 0 81 -2 70 -55 -6 -30 -21 -113 -33 -185 -12
-71 -27 -150 -33 -175 -10 -43 -5 -45 108 -45 l117 0 40 255 c21 140 39 268
39 285 0 37 -589 49 -600 12z"/>
<path d="M3713 1007 c-7 -8 -13 -35 -13 -61 l0 -47 305 5 305 6 6 55 7 55
-298 0 c-164 0 -304 -6 -312 -13z"/>
<path d="M4614 1008 c-8 -8 -14 -36 -14 -61 0 -43 -9 -47 -98 -47 -108 0 -106
3 -132 -182 l-14 -92 107 4 c113 4 111 2 149 145 4 14 38 25 77 25 90 0 90 -8
20 -315 -9 -43 -4 -45 107 -45 l116 0 34 215 c19 118 34 222 34 230 0 8 -41
15 -91 15 -87 0 -90 2 -85 55 6 55 -165 98 -210 53z"/>
<path d="M5112 975 c-5 -25 -24 -142 -42 -261 -18 -119 -37 -230 -43 -245 -9
-23 13 -29 108 -29 l120 0 13 102 14 103 194 -8 194 -7 6 55 7 55 -194 0 -194
0 13 65 c7 36 18 99 25 140 l12 75 -112 0 c-100 0 -113 -5 -121 -45z"/>
<path d="M5473 1004 c-45 -72 -37 -184 13 -184 62 0 68 8 77 110 7 79 -56 130
-90 74z"/>
<path d="M5613 975 c-28 -103 -16 -155 36 -155 47 0 103 135 77 185 -19 36
-102 14 -113 -30z"/>
<path d="M2180 905 c0 -30 -61 -396 -72 -430 -10 -32 9 -35 199 -35 l209 0 25
181 c14 99 33 185 44 192 42 26 50 -31 24 -173 -38 -213 -43 -200 78 -200
l107 0 23 165 c13 91 29 199 36 240 l12 75 -342 0 c-189 0 -343 -7 -343 -15z
m210 -190 c-18 -147 -28 -175 -63 -175 -33 0 -22 173 16 245 38 72 61 37 47
-70z"/>
<path d="M3693 847 c-71 -72 -13 -107 178 -107 173 0 191 -3 182 -35 -5 -19
-15 -71 -22 -115 -7 -44 -18 -96 -23 -115 -9 -31 4 -35 108 -35 l118 0 23 165
c13 91 29 185 36 210 l12 45 -299 0 c-165 0 -305 -6 -313 -13z"/>
<path d="M4660 341 c0 -10 -29 -21 -65 -25 -57 -5 -66 -14 -71 -72 -11 -106
84 -168 152 -100 29 29 32 216 4 216 -11 0 -20 -8 -20 -19z m-22 -79 c34 -22
15 -82 -26 -82 -38 0 -59 34 -44 71 12 33 30 36 70 11z"/>
<path d="M1173 307 c-46 -47 4 -107 89 -107 21 0 38 -9 38 -20 0 -11 -31 -20
-70 -20 -38 0 -70 -9 -70 -20 0 -11 35 -20 78 -20 136 0 165 101 38 137 l-66
19 75 2 c41 1 75 11 75 22 0 22 -165 28 -187 7z"/>
<path d="M1524 296 c-68 -68 -9 -176 97 -176 78 0 79 1 79 76 0 89 -28 124
-100 124 -29 0 -63 -11 -76 -24z m112 -73 c5 -32 -3 -43 -35 -43 -26 0 -41 13
-41 37 0 76 65 81 76 6z"/>
<path d="M1840 220 c0 -76 7 -100 30 -100 17 0 30 18 30 40 0 23 13 40 32 40
17 0 36 -18 42 -40 21 -80 58 -42 58 60 0 102 -37 140 -58 60 -6 -22 -25 -40
-42 -40 -19 0 -32 17 -32 40 0 22 -13 40 -30 40 -23 0 -30 -24 -30 -100z"/>
<path d="M2180 244 c0 -120 128 -181 179 -85 32 59 26 161 -9 161 -21 0 -30
-21 -30 -70 0 -57 -8 -70 -40 -70 -32 0 -40 13 -40 70 0 49 -9 70 -30 70 -21
0 -30 -22 -30 -76z"/>
<path d="M2544 296 c-35 -35 -31 -176 5 -176 19 0 31 26 35 75 5 58 14 75 44
75 21 0 42 11 47 25 11 33 -98 34 -131 1z"/>
<path d="M2844 296 c-68 -68 -9 -176 97 -176 78 0 79 1 79 76 0 89 -28 124
-100 124 -29 0 -63 -11 -76 -24z m112 -73 c5 -32 -3 -43 -35 -43 -26 0 -41 13
-41 37 0 76 65 81 76 6z"/>
<path d="M3264 296 c-29 -29 -31 -86 -3 -137 29 -54 130 -52 160 3 26 48 9 76
-25 42 -38 -38 -96 -29 -96 15 0 53 30 67 78 37 49 -30 77 -8 42 34 -30 36
-122 40 -156 6z"/>
<path d="M3580 244 c0 -78 28 -124 74 -124 14 0 26 14 26 30 0 17 -9 30 -20
30 -11 0 -20 32 -20 70 0 49 -9 70 -30 70 -21 0 -30 -22 -30 -76z"/>
<path d="M3865 307 c-32 -13 -33 -131 -1 -163 68 -68 163 -6 152 100 -6 67
-75 95 -151 63z m115 -80 c0 -37 -57 -58 -84 -31 -16 16 -15 31 2 52 29 34 82
21 82 -21z"/>
<path d="M4178 305 c-17 -119 24 -185 114 -185 l68 0 0 100 c0 111 -34 138
-44 35 -5 -50 -15 -65 -46 -65 -31 0 -41 15 -46 65 -6 56 -40 93 -46 50z"/>
</g>
</svg>
